<svg xmlns="http://www.w3.org/2000/svg" width="324.9" height="83.4" viewBox="0 0 324.9 83.4"><title>Zeichenfläche 1</title><path d="M66.1,44.7C58.5,56,48.6,59.2,40.9,59.2c-9.8,0-13-4.6-13.6-9.5-7,7.7-13.4,9.5-19.8,9.5-14.1,0-8.8-23.9,20.4-27.4C33,22.4,44.8,0,44.8,0H55.5L52.8,5c3.4-2.5,7.8-5,12-5,8.5,0,12.5,8.4,2.5,18.2A23.9,23.9,0,0,1,63,21.7C71.3,23.4,73.3,33.9,66.1,44.7ZM25,37.2C9.5,40.1,3.2,52.8,8.6,52.8,12.3,52.8,17.7,49.2,25,37.2ZM51.8,26.7a33,33,0,0,0-13.3,5.9c-1.4,2.5-2.4,4.4-3,5.4l-1.7,2.9C31.3,46.9,35,51,39.6,51s11.8-4.1,17-11.8S60,25.2,51.8,26.7ZM44,22.1a35.8,35.8,0,0,0,12.9-5.5C63.2,12,66.3,6.4,60.4,6.4s-10,5.3-12.1,7.6Z" style="fill:#fff"/><path d="M117.9,26.9c-1.7,1.7-21.4,21.7-26.2,26.2s-8.5,6.4-11,6.4c-4,0-5.8-2.9-2.3-9.1,2.5-4.5,5.8-11,8.7-16s.8-5-.7-5.7C81,34.1,63.2,49.2,59.1,53.1l-1.3-6.8C59.6,45,76.8,32.7,83,26.7c-2.7-2.4-5-6.7-1.5-11s8.7-3.5,11.6-1.6.4,6.1-3.2,10a3.7,3.7,0,0,0,1.3,1.1c4.6,2.6,10.6-.4,6.5,7.3-1.5,2.9-1.9,3.2-4.5,8-.8,1.6-2.5,4.9-2,5.4s1.9-.8,3.4-2.1,20.5-19.2,22.7-21.5S118.6,26.3,117.9,26.9Z" style="fill:#fff"/><path d="M152.5,26.9c-.5.6-13.4,16.3-22.7,14.8l-2,3.3c-6.5,9.8-13.6,14.5-20.2,14.5-8.2,0-12.4-9.2-4.5-22.6s16.2-17.3,21.5-17.3c1.1,0,1.4,1.3,1.6,2.7a6.5,6.5,0,0,1,4.6-2.4c3.3,0,4.1,5,3.4,9.2a29.8,29.8,0,0,1-1.4,6.1c5.6,1,15.5-9.3,16.9-11.1S153.1,26.3,152.5,26.9ZM124,37.5a11.5,11.5,0,0,1-.8-10.1c-3.1,1.8-7,5.9-9.9,10.9-3.8,6.5-4.5,11.8-1.4,11.8S120.9,43.3,124,37.5Z" style="fill:#fff"/><path d="M187.7,26.9c-.5.6-13.4,16.3-22.7,14.8l-2,3.3c-6.5,9.8-13.6,14.5-20.2,14.5-8.2,0-12.4-9.2-4.5-22.6s16.2-17.3,21.5-17.3c1.1,0,1.4,1.3,1.6,2.7A6.5,6.5,0,0,1,166,20c3.3,0,4.1,5,3.4,9.2a29.8,29.8,0,0,1-1.4,6.1c5.6,1,15.5-9.3,16.9-11.1S188.3,26.3,187.7,26.9ZM159.2,37.5a11.5,11.5,0,0,1-.8-10.1c-3.1,1.8-7,5.9-9.9,10.9C144.7,44.7,144,50,147.2,50S156.1,43.3,159.2,37.5Z" style="fill:#fff"/><path d="M230.9,26.9c-1.7,1.7-21.1,21.3-25.9,25.8S196.6,59,194.2,59s-5.6-2.8-2.3-9c2.4-4.4,6.3-11.5.9-11.5-3.4,0-12.1,6.3-19.7,20.5h-9.6L194.6,1h9.6L188.3,30.6,203.6,20h12.4L198.5,31h.7c5.6,0,9.9,6.1,5.3,14.6.5.5,1.9-.8,3.4-2.1S228,24.6,230.2,22.3,231.5,26.3,230.9,26.9Z" style="fill:#fff"/><path d="M252.3,26.6c-1.7,1.7-21.5,21.7-26.3,26.2s-8.5,6.4-11,6.4-5.8-2.9-2.3-9.1c2.5-4.5,26.7-50,26.7-50H249L227.6,40.1c-.9,1.6-2.5,4.9-2,5.4s1.9-.8,3.5-2.1,20.5-19.2,22.7-21.5S252.9,25.9,252.3,26.6Z" style="fill:#fff"/><path d="M294.8,83.4c-15.2-11-34.1-13.6-42-14.2l-.4.8c-5,8.6-8.2,13.4-15.9,13.4-3.8,0-9.3-2.7-9.3-8S234.4,64,244.6,64h1.9l10.1-19.2c-6.7,7.5-14.6,14.4-18.7,14.4-6.1,0-7.4-6.6-3.9-12.9L248.6,19h9.6S249.6,35.1,247,40c-.9,1.6-2.7,5.5.8,5.5s14.4-11.6,17.6-17.8l.2-.2L270,19h9.6s-16.6,31.4-24,45.2l69.3,1.6S301.9,78.5,294.8,83.4ZM244,69.6c-7.6,1.1-9.4,4.7-9.4,7.2s1.1,2.6,2.3,2.6S241,75.1,244,69.6Z" style="fill:#fff"/><path d="M299,60c-4,0-5.8-2.9-2.4-9.2,2.5-4.5,4.2-8,7-13.1s3.3-7.3,1.2-7.3S285.3,45.5,277.4,60v0h-9.5l21.5-40h9.5l-9.8,18.3c12.1-15.8,20.9-18.4,23.7-18.4,4.7,0,8.4,2.7,3.8,11.4-1.4,2.8-2.4,4.6-5.1,9.5-4.6,8.9-4.5,11.6-1.4,12.7C304.8,58.6,301.5,60,299,60Z" style="fill:#fff"/></svg>